<?xml version="1.0" encoding="UTF-8"?>
<svg xmlns="http://www.w3.org/2000/svg" xmlns:xlink="http://www.w3.org/1999/xlink" viewBox="0 0 1404.62 1404.62">
  <defs>
    <style>
      .cls-1 {
        fill: #ffd600;
        mix-blend-mode: color;
      }

      .cls-2 {
        isolation: isolate;
      }

      .cls-3 {
        stroke: url(#radial-gradient-3);
      }

      .cls-3, .cls-4, .cls-5, .cls-6, .cls-7 {
        stroke-miterlimit: 10;
      }

      .cls-3, .cls-5, .cls-6, .cls-7 {
        stroke-width: 10px;
      }

      .cls-4 {
        fill: url(#radial-gradient);
        stroke: #f3f000;
      }

      .cls-5 {
        stroke: url(#radial-gradient-2);
      }

      .cls-6 {
        stroke: url(#radial-gradient-5);
      }

      .cls-7 {
        stroke: url(#radial-gradient-4);
      }
    </style>
    <radialGradient id="radial-gradient" cx="-774.31" cy="-461.19" fx="-774.31" fy="-461.19" r="2879.3" gradientUnits="userSpaceOnUse">
      <stop offset="0" stop-color="#fffd00"/>
      <stop offset=".15" stop-color="#fcf900"/>
      <stop offset=".26" stop-color="#f3f000"/>
      <stop offset=".36" stop-color="#e4df00"/>
      <stop offset=".46" stop-color="#cfc800"/>
      <stop offset=".55" stop-color="#b3ab00"/>
      <stop offset=".63" stop-color="#928700"/>
      <stop offset=".67" stop-color="#837600"/>
      <stop offset="1" stop-color="#c0b900"/>
    </radialGradient>
    <radialGradient id="radial-gradient-2" cx="301.22" cy="1050.13" fx="301.22" fy="1050.13" r="144.12" xlink:href="#radial-gradient"/>
    <radialGradient id="radial-gradient-3" cx="578.89" cy="1052.2" fx="578.89" fy="1052.2" r="200.69" xlink:href="#radial-gradient"/>
    <radialGradient id="radial-gradient-4" cx="967.13" cy="1051.2" fx="967.13" fy="1051.2" r="192.19" xlink:href="#radial-gradient"/>
    <radialGradient id="radial-gradient-5" cx="702.31" cy="478.1" fx="702.31" fy="478.1" r="301.4" xlink:href="#radial-gradient"/>
  </defs>
  <g class="cls-2">
    <g id="Layer_2" data-name="Layer 2">
      <g id="Layer_1-2" data-name="Layer 1">
        <g>
          <rect class="cls-4" x=".5" y=".5" width="1403.62" height="1403.62" rx="122.98" ry="122.98"/>
          <g>
            <g>
              <path class="cls-5" d="M338.75,1244.46h-75.06v-388.67h75.06v388.67Z"/>
              <path class="cls-3" d="M725.38,912.36c-33.69-36.32-79.11-54.49-136.26-54.49h-207.28v94.09h75.06v-19.47h136.91c30.13,0,54.87,11.54,74.21,34.63,19.33,23.08,29,52.34,29,87.77,0,24.34-6.4,46.7-19.19,67.1-20.76,33.29-48.62,49.93-83.59,49.93h-137.34v-36.21h-75.06v110.83h217.51c48.05,0,88.57-16.46,121.56-49.39,36.68-36.5,55.02-83.39,55.02-140.65s-16.85-107.81-50.55-144.14Z"/>
              <path class="cls-7" d="M1081.64,1039.39c25.31-20.75,37.96-45.63,37.96-74.62,0-35.43-13.22-63.16-39.66-83.21-26.45-20.04-63.98-30.06-112.6-30.06s-86.23,10.02-112.81,30.06c-26.59,20.05-39.88,47.78-39.88,83.21,0,28.64,12.65,53.51,37.96,74.62-39.52,21.83-59.28,52.43-59.28,91.8,0,36.5,15.14,65.58,45.42,87.23,30.28,21.66,72.86,32.48,127.74,32.48s98.23-10.91,129.23-32.75c30.13-21.47,45.21-50.46,45.21-86.96,0-39.37-19.77-69.97-59.29-91.8ZM1043.9,1161.63c-4.61,2.46-9.35,4.54-14.2,6.32-2.42.89-4.87,1.71-7.34,2.46-25.3,8.6-51.3,6.6-77.01,5.27-3.43-.24-6.87-.54-10.3-.92-6.85-.77-13.65-1.87-20.26-3.49-3.3-.81-6.56-1.75-9.72-2.84-14-3.42-26-12.42-33-24.42-9-17-4-39,11.11-52.3,2.28-2.2,4.74-4.26,7.35-6.17,5.21-3.82,10.95-7.06,16.93-9.67,3.42-1.49,6.91-2.78,10.43-3.85,2.13-.67,4.29-1.25,6.46-1.74,2.17-.49,4.36-.9,6.55-1.22,14.32-2.55,27.82,1.2,40.6,7.15,2.56,1.19,5.09,2.47,7.61,3.81-.67-2.17-1.54-4.25-2.58-6.24-1.11-2.69-2.63-5.02-4.43-7.09-5.4-6.21-13.32-10.1-20.24-14.41-2.04-1-4.02-1.95-5.88-2.88-2.43-1.27-4.7-2.58-6.66-4.01-2.67-1.53-5.26-3.13-7.67-4.88-2.5-1.56-4.92-3.18-7.19-4.92-2.05-1.53-4.06-3.13-5.99-4.84-1.77-1.54-3.52-3.08-5.25-4.65-4.31-3.92-8.41-7.99-12.05-12.44-1.82-2.22-3.52-4.54-5.07-6.99-8.14-12.28-13.14-29.77-9.89-44.83.65-3.01,1.63-5.93,2.98-8.68,6.27-8.74,14.52-14.95,23.91-19.29,3.13-1.45,6.38-2.69,9.73-3.74,9.98-2.73,20.2-4.64,30.49-5.63,3.43-.33,6.87-.56,10.33-.67,31.44.2,79.44,4.2,86.14,42.58.36,3.08.38,6.21.07,9.33-1.23,12.46-7.7,24.64-18.62,31.98-2.39,1.83-4.87,3.46-7.42,4.92-20.41,11.63-45.53,11.79-68.73,9.39,7.2,5.1,15.3,8.58,23.66,11.58,2.79,1,5.61,1.95,8.43,2.88,24.44,6.68,47.45,20.93,62.37,41.16,2.13,2.89,4.1,5.9,5.88,9.03,1.71,2.54,3.26,5.3,4.64,8.21s2.56,5.97,3.54,9.13c5.48,18.02,4.48,40.02-11.93,52.95-2.34,1.64-4.92,3.21-7.75,4.7Z"/>
            </g>
            <path class="cls-6" d="M831.86,164.17l-.53-.38c-77.53-55.82-181.62-55.68-259,.35-76.82,55.62-109.62,153.88-81.63,244.49l4.15,13.44c15.5,50.18,35.5,102.32,60.48,159.4,11.17,25.52,17.15,52.85,17.15,81.24v44.09c0,37.42,25.35,68.96,60,77.95-.06.68-.26,1.37-.26,2.07,0,12.65,10.1,22.92,22.76,22.92h24.44v1.53c0,12.65,10.26,22.92,22.92,22.92s22.92-10.26,22.92-22.92v-1.53h24.44c12.65,0,22.92-10.26,22.92-22.92,0-.69-.42-1.37-.48-2.04,34.71-8.95,60.06-40.52,60.06-77.98v-44.09c0-28.38,6.04-55.71,17.21-81.24,24.98-57.07,44.85-109.21,60.36-159.4l4.12-13.05c28.08-90.88-4.83-189.27-82.03-244.85ZM752.43,740.99h-100.05c-11.49,0-21.68-5.12-28-13.75h156.05c-6.32,8.63-16.51,13.75-28,13.75ZM786.37,681.41h-168.04v-13.75h168.04v13.75ZM702.35,470.59c-12.65,0-22.92,10.26-22.92,22.92v49.5c-16.08-22.82-25.24-51.15-25.24-80.78,0-42.01,18.41-81.41,48.85-106.2,30.44,24.79,48.85,64.19,48.85,106.2,0,30.47-9.69,59.56-26.62,82.71v-51.42c0-12.66-10.26-22.92-22.92-22.92ZM870.2,395.5l-4.03,13.05c-14.99,48.53-34.09,99.08-58.37,154.56-8.26,18.86-14.04,38.51-17.36,58.73h-65.18v-12.7c44.96-33.01,72.45-88.18,72.45-146.91,0-63-31.62-121.92-82.52-153.76-7.43-4.65-16.87-4.65-24.31,0-50.9,31.84-82.52,90.76-82.52,153.76,0,58.12,26.93,112.76,71.07,145.87v13.74h-65.06c-3.32-20.22-9.11-39.87-17.36-58.73-24.28-55.49-43.38-106.04-58.36-154.55l-4.15-13.44c-22.2-71.84,3.81-149.74,64.72-193.85,30.74-22.26,66.8-33.39,102.86-33.39s71.82,11.04,102.49,33.12l.53.38c61.2,44.06,87.36,122.07,65.1,194.12Z"/>
          </g>
          <rect class="cls-1" x=".5" y=".5" width="1403.62" height="1403.62" rx="122.98" ry="122.98"/>
        </g>
      </g>
    </g>
  </g>
</svg>