<?xml version="1.0" encoding="UTF-8"?>
<svg xmlns="http://www.w3.org/2000/svg" xmlns:xlink="http://www.w3.org/1999/xlink" viewBox="0 0 1404.62 1404.62">
  <defs>
    <style>
      .cls-1 {
        fill: #ffd600;
        mix-blend-mode: color;
      }

      .cls-2 {
        isolation: isolate;
      }

      .cls-3 {
        fill: url(#radial-gradient);
        stroke: #f3f000;
      }

      .cls-3, .cls-4 {
        stroke-miterlimit: 10;
      }

      .cls-4 {
        stroke: url(#radial-gradient-2);
        stroke-width: 10px;
      }
    </style>
    <radialGradient id="radial-gradient" cx="-774.31" cy="-461.19" fx="-774.31" fy="-461.19" r="2879.3" gradientUnits="userSpaceOnUse">
      <stop offset="0" stop-color="#fffd00"/>
      <stop offset=".15" stop-color="#fcf900"/>
      <stop offset=".26" stop-color="#f3f000"/>
      <stop offset=".36" stop-color="#e4df00"/>
      <stop offset=".46" stop-color="#cfc800"/>
      <stop offset=".55" stop-color="#b3ab00"/>
      <stop offset=".63" stop-color="#928700"/>
      <stop offset=".67" stop-color="#837600"/>
      <stop offset="1" stop-color="#c0b900"/>
    </radialGradient>
    <radialGradient id="radial-gradient-2" cx="702.31" cy="702.31" fx="702.31" fy="702.31" r="496.88" xlink:href="#radial-gradient"/>
  </defs>
  <g class="cls-2">
    <g id="Layer_2" data-name="Layer 2">
      <g id="Layer_1-2" data-name="Layer 1">
        <g>
          <rect class="cls-3" x=".5" y=".5" width="1403.62" height="1403.62" rx="122.98" ry="122.98"/>
          <path class="cls-4" d="M917.27,181.42l-.88-.63c-128.65-92.62-301.35-92.39-429.75.58-127.47,92.29-181.9,255.33-135.44,405.68l6.89,22.3c25.72,83.26,58.9,169.77,100.36,264.49,18.54,42.35,28.46,87.7,28.46,134.8v73.15c0,62.1,42.06,114.43,99.56,129.34-.1,1.13-.44,2.28-.44,3.44,0,21,16.76,38.02,37.76,38.02h40.56v2.53c0,21,17.02,38.02,38.02,38.02s38.02-17.02,38.02-38.02v-2.53h40.56c21,0,38.02-17.02,38.02-38.02,0-1.14-.69-2.27-.79-3.38,57.6-14.84,99.65-67.23,99.65-129.39v-73.15c0-47.09,10.02-92.44,28.56-134.8,41.45-94.69,74.41-181.21,100.15-264.49l6.84-21.65c46.59-150.79-8.01-314.05-136.11-406.28ZM785.47,1138.52h-166.01c-19.06,0-35.98-8.5-46.46-22.81h258.93c-10.48,14.32-27.4,22.81-46.46,22.81ZM841.79,1039.66h-278.83v-22.81h278.83v22.81ZM702.37,689.86c-21,0-38.02,17.02-38.02,38.02v82.13c-26.67-37.87-41.88-84.87-41.88-134.03,0-69.7,30.55-135.09,81.05-176.22,50.5,41.13,81.05,106.51,81.05,176.22,0,50.56-16.07,98.83-44.17,137.23v-85.32c0-21-17.03-38.02-38.02-38.02ZM980.88,565.25l-6.69,21.65c-24.88,80.52-56.56,164.4-96.85,256.45-13.7,31.3-23.3,63.9-28.81,97.45h-108.15v-21.07c74.61-54.77,120.22-146.31,120.22-243.76,0-104.54-52.47-202.3-136.93-255.13-12.34-7.72-27.99-7.72-40.33,0-84.46,52.84-136.93,150.6-136.93,255.13,0,96.44,44.68,187.09,117.92,242.04v22.79h-107.95c-5.5-33.56-15.11-66.16-28.81-97.45-40.29-92.07-71.97-175.95-96.84-256.44l-6.89-22.3c-36.83-119.21,6.32-248.47,107.38-321.64,51.01-36.93,110.83-55.41,170.67-55.41s119.17,18.32,170.07,54.96l.88.63c101.55,73.1,144.96,202.54,108.02,322.1Z"/>
          <rect class="cls-1" x=".5" y=".5" width="1403.62" height="1403.62" rx="122.98" ry="122.98"/>
        </g>
      </g>
    </g>
  </g>
</svg>