<?xml version="1.0" encoding="UTF-8"?>
<svg id="Layer_2" data-name="Layer 2" xmlns="http://www.w3.org/2000/svg" xmlns:xlink="http://www.w3.org/1999/xlink" viewBox="0 0 1178.48 526.39">
  <defs>
    <style>
      .cls-1 {
        fill: url(#radial-gradient);
        stroke: #f3f000;
        stroke-miterlimit: 10;
      }
    </style>
    <radialGradient id="radial-gradient" cx="119.42" cy="328.24" fx="119.42" fy="328.24" r="159.21" gradientUnits="userSpaceOnUse">
      <stop offset="0" stop-color="#fffd00"/>
      <stop offset=".15" stop-color="#fcf900"/>
      <stop offset=".26" stop-color="#f3f000"/>
      <stop offset=".36" stop-color="#e4df00"/>
      <stop offset=".46" stop-color="#cfc800"/>
      <stop offset=".55" stop-color="#b3ab00"/>
      <stop offset=".63" stop-color="#928700"/>
      <stop offset=".67" stop-color="#837600"/>
      <stop offset="1" stop-color="#c0b900"/>
    </radialGradient>
  </defs>
  <g id="Layer_1-2" data-name="Layer 1">
    <g>
      <g id="Layer_2-2" data-name="Layer 2">
        <g id="Layer_1-2" data-name="Layer 1-2">
          <rect x="891.66" y="32.19" width="51.56" height="10.44"/>
          <polygon points="961.19 66.18 961.19 76.62 891.66 76.62 891.66 55.31 903.06 55.31 903.06 66.18 961.19 66.18"/>
          <path d="M285.11,50.38c0,4.35,0,17.6-27.87,17.6s-28.07-13.25-28.07-17.6V2.22h-11.37v50.51c0,7.87,3.77,14.36,11.21,19.28,7.08,4.69,16.6,7.08,28.23,7.08s21.22-2.42,28.27-7.16c7.28-4.78,10.97-11.23,10.97-19.18V2.22h-11.37v48.17Z"/>
          <polygon points="380.62 61.87 325.65 2.22 312.93 2.22 312.93 77.04 324.29 77.04 324.29 17.36 379.4 77.04 391.99 77.04 391.99 2.22 380.62 2.22 380.62 61.87"/>
          <path d="M482.97,10.21c-8.26-6.77-18.56-10.21-30.6-10.21s-22.43,3.43-30.69,10.23c-9.24,7.6-13.93,17.47-13.93,29.32s4.65,21.88,13.84,29.42c8.2,6.69,18.56,10.11,30.8,10.11s22.5-3.4,30.69-10.11c9.18-7.54,13.83-17.43,13.83-29.42,0-11.89-4.69-21.72-13.94-29.34ZM476.28,60.06c-5.97,5.26-14.02,7.92-23.93,7.92s-17.94-2.65-23.88-7.87c-5.94-5.22-8.81-11.93-8.81-20.53s3.36-15.77,10.3-21.25c6.06-4.8,13.59-7.24,22.39-7.24s16.28,2.44,22.4,7.24c6.99,5.51,10.39,12.46,10.39,21.25.01,8.54-2.89,15.23-8.85,20.48h-.01Z"/>
          <polygon points="609.11 13.29 642.43 13.29 642.43 77.04 653.79 77.04 653.79 13.29 687.11 13.29 687.11 2.22 609.11 2.22 609.11 13.29"/>
          <path d="M771.24,50.38c0,4.35,0,17.6-27.88,17.6s-28.07-13.25-28.07-17.6V2.22h-11.37v50.51c0,7.87,3.77,14.36,11.21,19.28,7.08,4.69,16.6,7.08,28.22,7.08s21.22-2.42,28.27-7.16c7.28-4.78,10.97-11.23,10.97-19.18V2.22h-11.37v48.17Z"/>
          <path d="M864.39,35.84c-3.35-1.47-7.63-2.45-13.08-2.99-2.91-.33-8.29-.65-16.44-.98-9.05-.37-15.45-1.31-19.08-2.79-4.52-1.83-5.05-4.67-5.05-6.65,0-3.32,1.74-5.75,5.51-7.65,4.21-2.14,10.51-3.22,18.73-3.22,10.43,0,19.77,2.2,27.77,6.53l1.75.95,7.79-8.48-2.48-1.66c-8.35-5.59-20.2-8.42-35.22-8.42-11.21,0-20.07,1.92-26.27,5.72-6.63,4.04-9.99,9.75-9.99,16.96,0,7.77,4.1,13.42,11.84,16.34,3.07,1.18,7.04,1.99,12.12,2.47,2.97.33,8.06.65,15.55.97,9.65.43,16.5,1.52,20.37,3.25,3.75,1.64,5.51,4.13,5.51,7.83,0,4.09-2.11,7.23-6.43,9.62-4.76,2.62-11.8,3.95-20.96,3.95-11.32.06-22.42-3.15-31.97-9.24l-2.07-1.31-6.5,9.41,2.09,1.45c10.27,7.14,23.66,10.76,39.78,10.76,12,0,21.42-2.13,28-6.32,6.95-4.43,10.47-10.71,10.47-18.67-.01-8.33-4.07-14.5-11.75-17.83Z"/>
          <path d="M584.5,38.56c5.62-3.65,8.55-9.09,8.55-15.97,0-6.25-2.09-11.28-6.2-14.95-4.03-3.59-9.64-5.41-16.67-5.41h-56.77v11.08h0v8.91h11.41v-8.91h46.41c3.12,0,5.51.85,7.32,2.6,1.81,1.75,2.64,3.97,2.64,6.82,0,3.17-1.03,5.7-3.15,7.72-2.12,2.03-4.86,3.07-8.26,3.07h-56.38v11.07h57.42c4.08,0,7.19,1,9.49,3.04,2.22,1.97,3.29,4.62,3.29,8.08,0,4.77-1.48,10.25-12.98,10.25h-45.83v-10.45h-11.37v21.53h57.24c7.39,0,13.38-1.87,17.73-5.56,4.5-3.8,6.78-8.97,6.78-15.38,0-5.67-1.99-12.9-10.66-17.54Z"/>
          <polygon points="903.06 12.87 961.13 12.87 961.13 2.44 891.66 2.44 891.66 12.72 891.66 12.87 891.66 21.89 903.06 21.89 903.06 12.87"/>
        </g>
      </g>
      <g>
        <path d="M950.95,6.08h-2.16v3.65h-1.1v-3.65h-2.16v-.88h5.41v.88Z"/>
        <path d="M958.29,9.73h-1.1v-3.21h-.02l-2.16,2.59-2.16-2.59h-.02v3.21h-1.1v-4.53h1.28l1.99,2.4,1.99-2.4h1.29v4.53Z"/>
      </g>
      <path d="M376.31,519.94h-75.06V131.28h75.06v388.67Z"/>
      <path d="M762.94,187.84c-33.69-36.32-79.11-54.49-136.26-54.49h-207.28v94.09h75.06v-19.47h136.91c30.13,0,54.87,11.54,74.21,34.63,19.33,23.08,29,52.34,29,87.77,0,24.34-6.4,46.7-19.19,67.1-20.76,33.29-48.62,49.93-83.59,49.93h-137.34v-36.21h-75.06v110.83h217.51c48.05,0,88.57-16.46,121.56-49.39,36.68-36.5,55.02-83.39,55.02-140.65s-16.85-107.81-50.55-144.14Z"/>
      <path d="M1119.19,314.88c25.31-20.75,37.96-45.63,37.96-74.62,0-35.43-13.22-63.16-39.66-83.21-26.45-20.04-63.98-30.06-112.6-30.06s-86.23,10.02-112.81,30.06c-26.59,20.05-39.88,47.78-39.88,83.21,0,28.64,12.65,53.51,37.96,74.62-39.52,21.83-59.28,52.43-59.28,91.8,0,36.5,15.14,65.58,45.42,87.23,30.28,21.66,72.86,32.48,127.74,32.48s98.23-10.91,129.23-32.75c30.13-21.47,45.21-50.46,45.21-86.96,0-39.37-19.77-69.97-59.29-91.8ZM1081.46,437.11c-4.61,2.46-9.35,4.54-14.2,6.32-2.42.89-4.87,1.71-7.34,2.46-25.3,8.6-51.3,6.6-77.01,5.27-3.43-.24-6.87-.54-10.3-.92-6.85-.77-13.65-1.87-20.26-3.49-3.3-.81-6.56-1.75-9.72-2.84-14-3.42-26-12.42-33-24.42-9-17-4-39,11.11-52.3,2.28-2.2,4.74-4.26,7.35-6.17,5.21-3.82,10.95-7.06,16.93-9.67,3.42-1.49,6.91-2.78,10.43-3.85,2.13-.67,4.29-1.25,6.46-1.74,2.17-.49,4.36-.9,6.55-1.22,14.32-2.55,27.82,1.2,40.6,7.15,2.56,1.19,5.09,2.47,7.61,3.81-.67-2.17-1.54-4.25-2.58-6.24-1.11-2.69-2.63-5.02-4.43-7.09-5.4-6.21-13.32-10.1-20.24-14.41-2.04-1-4.02-1.95-5.88-2.88-2.43-1.27-4.7-2.58-6.66-4.01-2.67-1.53-5.26-3.13-7.67-4.88-2.5-1.56-4.92-3.18-7.19-4.92-2.05-1.53-4.06-3.13-5.99-4.84-1.77-1.54-3.52-3.08-5.25-4.65-4.31-3.92-8.41-7.99-12.05-12.44-1.82-2.22-3.52-4.54-5.07-6.99-8.14-12.28-13.14-29.77-9.89-44.83.65-3.01,1.63-5.93,2.98-8.68,6.27-8.74,14.52-14.95,23.91-19.29,3.13-1.45,6.38-2.69,9.73-3.74,9.98-2.73,20.2-4.64,30.49-5.63,3.43-.33,6.87-.56,10.33-.67,31.44.2,79.44,4.2,86.14,42.58.36,3.08.38,6.21.07,9.33-1.23,12.46-7.7,24.64-18.62,31.98-2.39,1.83-4.87,3.46-7.42,4.92-20.41,11.63-45.53,11.79-68.73,9.39,7.2,5.1,15.3,8.58,23.66,11.58,2.79,1,5.61,1.95,8.43,2.88,24.44,6.68,47.45,20.93,62.37,41.16,2.13,2.89,4.1,5.9,5.88,9.03,1.71,2.54,3.26,5.3,4.64,8.21s2.56,5.97,3.54,9.13c5.48,18.02,4.48,40.02-11.93,52.95-2.34,1.64-4.92,3.21-7.75,4.7Z"/>
      <path class="cls-1" d="M188.98,159.69l-.29-.21c-41.63-29.97-97.51-29.89-139.06.19C8.39,189.54-9.22,242.3,5.81,290.95l2.23,7.22c8.32,26.94,19.06,54.94,32.47,85.58,6,13.7,9.21,28.38,9.21,43.62v23.67c0,20.09,13.61,37.03,32.21,41.85-.03.37-.14.74-.14,1.11,0,6.79,5.42,12.3,12.22,12.3h13.12v.82c0,6.79,5.51,12.3,12.3,12.3s12.3-5.51,12.3-12.3v-.82h13.12c6.79,0,12.3-5.51,12.3-12.3,0-.37-.22-.73-.26-1.09,18.64-4.8,32.25-21.75,32.25-41.87v-23.67c0-15.24,3.24-29.91,9.24-43.62,13.41-30.64,24.08-58.64,32.41-85.58l2.21-7.01c15.08-48.79-2.59-101.62-44.04-131.46ZM146.33,469.39h-53.72c-6.17,0-11.64-2.75-15.03-7.38h83.79c-3.39,4.63-8.87,7.38-15.03,7.38ZM164.55,437.41h-90.22v-7.38h90.22v7.38ZM119.44,324.21c-6.79,0-12.3,5.51-12.3,12.3v26.57c-8.63-12.25-13.55-27.46-13.55-43.37,0-22.56,9.88-43.71,26.23-57.02,16.34,13.31,26.23,34.47,26.23,57.02,0,16.36-5.2,31.98-14.29,44.41v-27.61c0-6.8-5.51-12.3-12.3-12.3ZM209.56,283.9l-2.16,7.01c-8.05,26.05-18.3,53.2-31.34,82.98-4.43,10.13-7.54,20.68-9.32,31.53h-34.99v-6.82c24.14-17.72,38.9-47.34,38.9-78.88,0-33.83-16.98-65.46-44.31-82.55-3.99-2.5-9.06-2.5-13.05,0-27.33,17.1-44.31,48.73-44.31,82.55,0,31.21,14.46,60.54,38.16,78.32v7.37h-34.93c-1.78-10.86-4.89-21.41-9.32-31.53-13.04-29.79-23.29-56.94-31.34-82.98l-2.23-7.22c-11.92-38.57,2.04-80.4,34.75-104.08,16.51-11.95,35.86-17.93,55.23-17.93s38.56,5.93,55.03,17.78l.29.21c32.86,23.65,46.91,65.54,34.95,104.23Z"/>
    </g>
  </g>
</svg>